<svg xmlns="http://www.w3.org/2000/svg" width="1266" height="1656" viewBox="0 0 1266 1656" fill="none"><path d="M863.525 36.9835H73.097C57.5063 36.9835 44.8675 49.6188 44.8675 65.2053V1067.08C44.8675 1082.67 57.5063 1095.3 73.097 1095.3H863.525C879.115 1095.3 891.754 1082.67 891.754 1067.08V65.2053C891.754 49.6188 879.115 36.9835 863.525 36.9835Z" fill="url(#paint0_linear_1580_239)"></path><path fill-rule="evenodd" clip-rule="evenodd" d="M101.327 149.871H835.295C850.885 149.871 863.524 162.506 863.524 178.092V1038.86C863.524 1054.44 850.885 1067.08 835.295 1067.08H101.327C85.7358 1067.08 73.097 1054.44 73.097 1038.86V178.092C73.097 162.506 85.7358 149.871 101.327 149.871ZM87.2118 79.3162C95.0072 79.3162 101.327 85.6339 101.327 93.4271C101.327 101.22 95.0072 107.538 87.2118 107.538C79.4164 107.538 73.097 101.22 73.097 93.4271C73.097 85.6339 79.4164 79.3162 87.2118 79.3162ZM129.556 79.3162C137.352 79.3162 143.671 85.6339 143.671 93.4271C143.671 101.22 137.352 107.538 129.556 107.538C121.761 107.538 115.441 101.22 115.441 93.4271C115.441 85.6339 121.761 79.3162 129.556 79.3162ZM171.9 79.3162C179.696 79.3162 186.015 85.6339 186.015 93.4271C186.015 101.22 179.696 107.538 171.9 107.538C164.105 107.538 157.786 101.22 157.786 93.4271C157.786 85.6339 164.105 79.3162 171.9 79.3162Z" fill="white"></path><path d="M796.985 188.561H139.636C125.115 188.561 113.343 200.496 113.343 215.218V575.089C113.343 589.811 125.115 601.746 139.636 601.746H796.985C811.507 601.746 823.279 589.811 823.279 575.089V215.218C823.279 200.496 811.507 188.561 796.985 188.561Z" fill="url(#paint1_linear_1580_239)" fill-opacity="0.5"></path><path d="M603.409 322.511H335.228C331.33 322.511 328.171 325.67 328.171 329.566V336.622C328.171 340.519 331.33 343.677 335.228 343.677H603.409C607.306 343.677 610.466 340.519 610.466 336.622V329.566C610.466 325.67 607.306 322.511 603.409 322.511Z" fill="white"></path><path d="M673.983 364.844H264.654C260.756 364.844 257.597 368.003 257.597 371.899V378.955C257.597 382.851 260.756 386.01 264.654 386.01H673.983C677.88 386.01 681.04 382.851 681.04 378.955V371.899C681.04 368.003 677.88 364.844 673.983 364.844Z" fill="white"></path><path d="M540.76 420.144H399.612C395.714 420.144 392.554 423.303 392.554 427.2V462.477C392.554 466.374 395.714 469.533 399.612 469.533H540.76C544.657 469.533 547.817 466.374 547.817 462.477V427.2C547.817 423.303 544.657 420.144 540.76 420.144Z" fill="white"></path><path d="M715.319 841.305C762.089 841.305 800.008 803.396 800.008 756.639C800.008 709.88 762.089 671.974 715.319 671.974C668.547 671.974 630.631 709.88 630.631 756.639C630.631 803.396 668.547 841.305 715.319 841.305Z" fill="url(#paint2_linear_1580_239)"></path><path d="M467.993 841.143C514.762 841.143 552.681 803.234 552.681 756.478C552.681 709.718 514.762 671.812 467.993 671.812C421.22 671.812 383.304 709.718 383.304 756.478C383.304 803.234 421.22 841.143 467.993 841.143Z" fill="url(#paint3_linear_1580_239)"></path><path d="M221.73 841.143C268.499 841.143 306.419 803.234 306.419 756.478C306.419 709.718 268.499 671.812 221.73 671.812C174.958 671.812 137.041 709.718 137.041 756.478C137.041 803.234 174.958 841.143 221.73 841.143Z" fill="url(#paint4_linear_1580_239)"></path><rect x="150.436" y="919.105" width="142.193" height="13.395" rx="6.69751" fill="url(#paint5_linear_1580_239)" fill-opacity="0.24"></rect><rect x="397.729" y="919.105" width="142.193" height="13.395" rx="6.69751" fill="url(#paint6_linear_1580_239)" fill-opacity="0.24"></rect><rect x="643.992" y="919.105" width="142.193" height="13.395" rx="6.69751" fill="url(#paint7_linear_1580_239)" fill-opacity="0.24"></rect><rect x="160.74" y="875.829" width="121.586" height="21.6381" rx="10.8191" fill="url(#paint8_linear_1580_239)"></rect><rect x="408.033" y="875.829" width="121.586" height="21.6381" rx="10.8191" fill="url(#paint9_linear_1580_239)"></rect><rect x="654.296" y="875.829" width="121.586" height="21.6381" rx="10.8191" fill="url(#paint10_linear_1580_239)"></rect><rect x="155.588" y="942.804" width="131.889" height="15.4558" rx="7.7279" fill="url(#paint11_linear_1580_239)" fill-opacity="0.86"></rect><rect x="402.881" y="942.804" width="131.889" height="15.4558" rx="7.7279" fill="url(#paint12_linear_1580_239)" fill-opacity="0.86"></rect><rect x="649.144" y="942.804" width="131.889" height="15.4558" rx="7.7279" fill="url(#paint13_linear_1580_239)" fill-opacity="0.86"></rect><rect width="121.586" height="14.4254" rx="7.21271" transform="matrix(-1 0 0 1 282.326 967.533)" fill="url(#paint14_linear_1580_239)" fill-opacity="0.86"></rect><rect width="121.586" height="14.4254" rx="7.21271" transform="matrix(-1 0 0 1 529.619 967.533)" fill="url(#paint15_linear_1580_239)" fill-opacity="0.86"></rect><rect width="121.586" height="14.4254" rx="7.21271" transform="matrix(-1 0 0 1 775.881 967.533)" fill="url(#paint16_linear_1580_239)" fill-opacity="0.86"></rect><g filter="url(#filter0_b_1580_239)"><rect y="591.442" width="935.591" height="527.558" fill="white" fill-opacity="0.15"></rect></g><g filter="url(#filter1_b_1580_239)"><path d="M17.5166 0H908.801V603.807H659.963L630.597 549.711L659.963 499.738L674.388 421.428L645.537 325.602L578.562 253.99L488.919 224.624L350.847 253.99L287.478 362.696V499.738L381.758 603.807H17.5166V0Z" fill="white" fill-opacity="0.15"></path></g><path fill-rule="evenodd" clip-rule="evenodd" d="M651.548 414.696C651.548 511.362 573.185 589.725 476.52 589.725C379.854 589.725 301.491 511.362 301.491 414.696C301.491 318.031 379.854 239.668 476.52 239.668C573.185 239.668 651.548 318.031 651.548 414.696ZM616.984 590.52C578.487 621.32 529.654 639.733 476.52 639.733C352.235 639.733 251.483 538.98 251.483 414.696C251.483 290.412 352.235 189.66 476.52 189.66C600.804 189.66 701.556 290.412 701.556 414.696C701.556 467.83 683.143 516.663 652.343 555.161L794.251 697.062C804.013 706.829 804.013 722.661 794.251 732.428C784.484 742.189 768.652 742.189 758.885 732.428L616.984 590.52Z" fill="url(#paint17_linear_1580_239)"></path><g filter="url(#filter2_f_1580_239)"><rect x="405" y="961" width="761" height="595" rx="37" fill="#363636" fill-opacity="0.1"></rect></g><rect x="405" y="961" width="761" height="595" rx="37" fill="url(#paint18_linear_1580_239)"></rect><rect x="434" y="987" width="704" height="543" rx="24" fill="white"></rect><rect x="913" y="1014" width="192" height="489" rx="24" fill="url(#paint19_linear_1580_239)" fill-opacity="0.3"></rect><rect x="690" y="1014" width="192" height="489" rx="24" fill="url(#paint20_linear_1580_239)" fill-opacity="0.3"></rect><rect x="466" y="1014" width="192" height="489" rx="24" fill="url(#paint21_linear_1580_239)" fill-opacity="0.3"></rect><rect x="483" y="1030" width="158" height="31" rx="13" fill="#FAFFE6"></rect><rect x="707" y="1030" width="158" height="31" rx="13" fill="#FAFFE6"></rect><rect x="930" y="1030" width="158" height="31" rx="13" fill="#FAFFE6"></rect><rect x="483" y="1082" width="158" height="96" rx="13" fill="#F9FFE0"></rect><rect x="494" y="1095" width="136" height="13" rx="6.5" fill="#7F9716" fill-opacity="0.27"></rect><rect x="494" y="1125" width="136" height="7" rx="3.5" fill="#949A79" fill-opacity="0.27"></rect><rect x="494" y="1141" width="66" height="7" rx="3.5" fill="#7F9716" fill-opacity="0.27"></rect><rect x="494" y="1158" width="42" height="7" rx="3.5" fill="#BFC5A5" fill-opacity="0.27"></rect><rect x="541" y="1158" width="42" height="7" rx="3.5" fill="#7F9716" fill-opacity="0.27"></rect><rect x="588" y="1158" width="42" height="7" rx="3.5" fill="#BFC5A5" fill-opacity="0.27"></rect><rect x="564" y="1141" width="66" height="7" rx="3.5" fill="#BFC5A5" fill-opacity="0.27"></rect><rect x="707" y="1190" width="158" height="96" rx="13" fill="#F9FFE0"></rect><rect x="718" y="1203" width="136" height="13" rx="6.5" fill="#7F9716" fill-opacity="0.27"></rect><rect x="718" y="1233" width="136" height="7" rx="3.5" fill="#949A79" fill-opacity="0.27"></rect><rect x="718" y="1249" width="66" height="7" rx="3.5" fill="#7F9716" fill-opacity="0.27"></rect><rect x="718" y="1266" width="42" height="7" rx="3.5" fill="#BFC5A5" fill-opacity="0.27"></rect><rect x="765" y="1266" width="42" height="7" rx="3.5" fill="#7F9716" fill-opacity="0.27"></rect><rect x="812" y="1266" width="42" height="7" rx="3.5" fill="#BFC5A5" fill-opacity="0.27"></rect><rect x="788" y="1249" width="66" height="7" rx="3.5" fill="#BFC5A5" fill-opacity="0.27"></rect><rect x="930" y="1298" width="158" height="96" rx="13" fill="#F9FFE0"></rect><rect x="941" y="1311" width="136" height="13" rx="6.5" fill="#7F9716" fill-opacity="0.27"></rect><rect x="941" y="1341" width="136" height="7" rx="3.5" fill="#949A79" fill-opacity="0.27"></rect><rect x="941" y="1357" width="66" height="7" rx="3.5" fill="#7F9716" fill-opacity="0.27"></rect><rect x="941" y="1374" width="42" height="7" rx="3.5" fill="#BFC5A5" fill-opacity="0.27"></rect><rect x="988" y="1374" width="42" height="7" rx="3.5" fill="#7F9716" fill-opacity="0.27"></rect><rect x="1035" y="1374" width="42" height="7" rx="3.5" fill="#BFC5A5" fill-opacity="0.27"></rect><rect x="1011" y="1357" width="66" height="7" rx="3.5" fill="#BFC5A5" fill-opacity="0.27"></rect><rect x="707" y="1082" width="158" height="96" rx="13" fill="#F9FFE0"></rect><rect x="718" y="1095" width="136" height="13" rx="6.5" fill="#7F9716" fill-opacity="0.27"></rect><rect x="718" y="1125" width="136" height="7" rx="3.5" fill="#949A79" fill-opacity="0.27"></rect><rect x="718" y="1141" width="66" height="7" rx="3.5" fill="#7F9716" fill-opacity="0.27"></rect><rect x="718" y="1158" width="42" height="7" rx="3.5" fill="#BFC5A5" fill-opacity="0.27"></rect><rect x="765" y="1158" width="42" height="7" rx="3.5" fill="#7F9716" fill-opacity="0.27"></rect><rect x="812" y="1158" width="42" height="7" rx="3.5" fill="#BFC5A5" fill-opacity="0.27"></rect><rect x="788" y="1141" width="66" height="7" rx="3.5" fill="#BFC5A5" fill-opacity="0.27"></rect><rect x="930" y="1190" width="158" height="96" rx="13" fill="#F9FFE0"></rect><rect x="941" y="1203" width="136" height="13" rx="6.5" fill="#7F9716" fill-opacity="0.27"></rect><rect x="941" y="1233" width="136" height="7" rx="3.5" fill="#949A79" fill-opacity="0.27"></rect><rect x="941" y="1249" width="66" height="7" rx="3.5" fill="#7F9716" fill-opacity="0.27"></rect><rect x="941" y="1266" width="42" height="7" rx="3.5" fill="#BFC5A5" fill-opacity="0.27"></rect><rect x="988" y="1266" width="42" height="7" rx="3.5" fill="#7F9716" fill-opacity="0.27"></rect><rect x="1035" y="1266" width="42" height="7" rx="3.5" fill="#BFC5A5" fill-opacity="0.27"></rect><rect x="1011" y="1249" width="66" height="7" rx="3.5" fill="#BFC5A5" fill-opacity="0.27"></rect><rect x="930" y="1082" width="158" height="96" rx="13" fill="#F9FFE0"></rect><rect x="941" y="1095" width="136" height="13" rx="6.5" fill="#7F9716" fill-opacity="0.27"></rect><rect x="941" y="1125" width="136" height="7" rx="3.5" fill="#949A79" fill-opacity="0.27"></rect><rect x="941" y="1141" width="66" height="7" rx="3.5" fill="#7F9716" fill-opacity="0.27"></rect><rect x="941" y="1158" width="42" height="7" rx="3.5" fill="#BFC5A5" fill-opacity="0.27"></rect><rect x="988" y="1158" width="42" height="7" rx="3.5" fill="#7F9716" fill-opacity="0.27"></rect><rect x="1035" y="1158" width="42" height="7" rx="3.5" fill="#BFC5A5" fill-opacity="0.27"></rect><rect x="1011" y="1141" width="66" height="7" rx="3.5" fill="#BFC5A5" fill-opacity="0.27"></rect><rect x="483" y="1190" width="158" height="96" rx="13" fill="#F9FFE0"></rect><rect x="494" y="1203" width="136" height="13" rx="6.5" fill="#7F9716" fill-opacity="0.27"></rect><rect x="494" y="1233" width="136" height="7" rx="3.5" fill="#949A79" fill-opacity="0.27"></rect><rect x="494" y="1249" width="66" height="7" rx="3.5" fill="#7F9716" fill-opacity="0.27"></rect><rect x="494" y="1266" width="42" height="7" rx="3.5" fill="#BFC5A5" fill-opacity="0.27"></rect><rect x="541" y="1266" width="42" height="7" rx="3.5" fill="#7F9716" fill-opacity="0.27"></rect><rect x="588" y="1266" width="42" height="7" rx="3.5" fill="#BFC5A5" fill-opacity="0.27"></rect><rect x="564" y="1249" width="66" height="7" rx="3.5" fill="#BFC5A5" fill-opacity="0.27"></rect><rect x="483" y="1298" width="158" height="96" rx="13" fill="#F9FFE0"></rect><rect x="494" y="1311" width="136" height="13" rx="6.5" fill="#7F9716" fill-opacity="0.27"></rect><rect x="494" y="1341" width="136" height="7" rx="3.5" fill="#949A79" fill-opacity="0.27"></rect><rect x="494" y="1357" width="66" height="7" rx="3.5" fill="#7F9716" fill-opacity="0.27"></rect><rect x="494" y="1374" width="42" height="7" rx="3.5" fill="#BFC5A5" fill-opacity="0.27"></rect><rect x="541" y="1374" width="42" height="7" rx="3.5" fill="#7F9716" fill-opacity="0.27"></rect><rect x="588" y="1374" width="42" height="7" rx="3.5" fill="#BFC5A5" fill-opacity="0.27"></rect><rect x="564" y="1357" width="66" height="7" rx="3.5" fill="#BFC5A5" fill-opacity="0.27"></rect><rect x="483" y="1406" width="158" height="96" rx="13" fill="#F9FFE0"></rect><rect x="494" y="1419" width="136" height="13" rx="6.5" fill="#7F9716" fill-opacity="0.27"></rect><rect x="494" y="1449" width="136" height="7" rx="3.5" fill="#949A79" fill-opacity="0.27"></rect><rect x="494" y="1465" width="66" height="7" rx="3.5" fill="#7F9716" fill-opacity="0.27"></rect><rect x="494" y="1482" width="42" height="7" rx="3.5" fill="#BFC5A5" fill-opacity="0.27"></rect><rect x="541" y="1482" width="42" height="7" rx="3.5" fill="#7F9716" fill-opacity="0.27"></rect><rect x="588" y="1482" width="42" height="7" rx="3.5" fill="#BFC5A5" fill-opacity="0.27"></rect><rect x="564" y="1465" width="66" height="7" rx="3.5" fill="#BFC5A5" fill-opacity="0.27"></rect><path d="M906 574.5C998.333 596.833 1175.1 697.5 1031.5 945.5" stroke="url(#paint22_linear_1580_239)" stroke-width="11"></path><path d="M914 962H1121.5" stroke="url(#paint23_linear_1580_239)" stroke-width="2"></path><circle cx="1020.5" cy="959.5" r="24.5" fill="#CDFF00"></circle><circle cx="1020.5" cy="959.5" r="15.1667" fill="white"></circle><circle cx="888.5" cy="565.5" r="24.5" fill="#CDFF00"></circle><circle cx="888.5" cy="565.5" r="15.1667" fill="white"></circle><defs><filter id="filter0_b_1580_239" x="-15" y="576.442" width="965.591" height="557.558" filterUnits="userSpaceOnUse" color-interpolation-filters="sRGB"><feGaussianBlur stdDeviation="7.5"></feGaussianBlur></filter><filter id="filter1_b_1580_239" x="2.5166" y="-15" width="921.285" height="633.807" filterUnits="userSpaceOnUse" color-interpolation-filters="sRGB"><feGaussianBlur stdDeviation="7.5"></feGaussianBlur></filter><filter id="filter2_f_1580_239" x="305" y="861" width="961" height="795" filterUnits="userSpaceOnUse" color-interpolation-filters="sRGB"><feGaussianBlur stdDeviation="50"></feGaussianBlur></filter><linearGradient id="paint0_linear_1580_239" x1="-328.693" y1="1238.52" x2="667.175" y2="895.921" gradientUnits="userSpaceOnUse"><stop stop-color="#CFFF00"></stop><stop offset="1" stop-color="#F7FFD7"></stop></linearGradient><linearGradient id="paint1_linear_1580_239" x1="468.311" y1="188.561" x2="1148.37" y2="1055.63" gradientUnits="userSpaceOnUse"><stop stop-color="#7F9716"></stop><stop offset="1" stop-color="#CFFF00" stop-opacity="0.5"></stop></linearGradient><linearGradient id="paint2_linear_1580_239" x1="685.722" y1="943.319" x2="787.731" y2="826.885" gradientUnits="userSpaceOnUse"><stop stop-color="#7F9716" stop-opacity="0.59"></stop><stop offset="1" stop-color="#CFFF00" stop-opacity="0.16"></stop></linearGradient><linearGradient id="paint3_linear_1580_239" x1="654.296" y1="645.022" x2="540.404" y2="826.723" gradientUnits="userSpaceOnUse"><stop stop-color="#7F9716" stop-opacity="0.59"></stop><stop offset="1" stop-color="#CFFF00" stop-opacity="0.16"></stop></linearGradient><linearGradient id="paint4_linear_1580_239" x1="446.673" y1="840.796" x2="170.529" y2="671.812" gradientUnits="userSpaceOnUse"><stop stop-color="#7F9716" stop-opacity="0.59"></stop><stop offset="1" stop-color="#CFFF00" stop-opacity="0.16"></stop></linearGradient><linearGradient id="paint5_linear_1580_239" x1="150.436" y1="925.802" x2="292.63" y2="925.802" gradientUnits="userSpaceOnUse"><stop stop-color="#808080"></stop><stop offset="1" stop-color="#EAEAEA" stop-opacity="0.24"></stop></linearGradient><linearGradient id="paint6_linear_1580_239" x1="397.729" y1="925.802" x2="539.923" y2="925.802" gradientUnits="userSpaceOnUse"><stop stop-color="#808080"></stop><stop offset="1" stop-color="#EAEAEA" stop-opacity="0.24"></stop></linearGradient><linearGradient id="paint7_linear_1580_239" x1="643.992" y1="925.802" x2="786.185" y2="925.802" gradientUnits="userSpaceOnUse"><stop stop-color="#808080"></stop><stop offset="1" stop-color="#EAEAEA" stop-opacity="0.24"></stop></linearGradient><linearGradient id="paint8_linear_1580_239" x1="100.388" y1="997.93" x2="293.476" y2="911.58" gradientUnits="userSpaceOnUse"><stop stop-color="#7F9716"></stop><stop offset="1" stop-color="#EAEAEA" stop-opacity="0.24"></stop></linearGradient><linearGradient id="paint9_linear_1580_239" x1="347.681" y1="997.93" x2="540.768" y2="911.58" gradientUnits="userSpaceOnUse"><stop stop-color="#7F9716"></stop><stop offset="1" stop-color="#EAEAEA" stop-opacity="0.24"></stop></linearGradient><linearGradient id="paint10_linear_1580_239" x1="593.943" y1="997.93" x2="787.031" y2="911.58" gradientUnits="userSpaceOnUse"><stop stop-color="#7F9716"></stop><stop offset="1" stop-color="#EAEAEA" stop-opacity="0.24"></stop></linearGradient><linearGradient id="paint11_linear_1580_239" x1="155.588" y1="950.532" x2="287.478" y2="950.532" gradientUnits="userSpaceOnUse"><stop stop-color="#B4B4B4" stop-opacity="0.08"></stop><stop offset="1" stop-color="#D5D5D5"></stop></linearGradient><linearGradient id="paint12_linear_1580_239" x1="402.881" y1="950.532" x2="534.771" y2="950.532" gradientUnits="userSpaceOnUse"><stop stop-color="#B4B4B4" stop-opacity="0.08"></stop><stop offset="1" stop-color="#D5D5D5"></stop></linearGradient><linearGradient id="paint13_linear_1580_239" x1="649.144" y1="950.532" x2="781.033" y2="950.532" gradientUnits="userSpaceOnUse"><stop stop-color="#B4B4B4" stop-opacity="0.08"></stop><stop offset="1" stop-color="#D5D5D5"></stop></linearGradient><linearGradient id="paint14_linear_1580_239" x1="0" y1="7.21271" x2="121.586" y2="7.21271" gradientUnits="userSpaceOnUse"><stop stop-color="#B4B4B4" stop-opacity="0.08"></stop><stop offset="1" stop-color="#D5D5D5"></stop></linearGradient><linearGradient id="paint15_linear_1580_239" x1="0" y1="7.21271" x2="121.586" y2="7.21271" gradientUnits="userSpaceOnUse"><stop stop-color="#B4B4B4" stop-opacity="0.08"></stop><stop offset="1" stop-color="#D5D5D5"></stop></linearGradient><linearGradient id="paint16_linear_1580_239" x1="0" y1="7.21271" x2="121.586" y2="7.21271" gradientUnits="userSpaceOnUse"><stop stop-color="#B4B4B4" stop-opacity="0.08"></stop><stop offset="1" stop-color="#D5D5D5"></stop></linearGradient><linearGradient id="paint17_linear_1580_239" x1="64.9144" y1="-214.32" x2="690.359" y2="882.526" gradientUnits="userSpaceOnUse"><stop stop-color="#7F9716"></stop><stop offset="1" stop-color="#293107"></stop></linearGradient><linearGradient id="paint18_linear_1580_239" x1="152.5" y1="2152.04" x2="1381.97" y2="1362.54" gradientUnits="userSpaceOnUse"><stop stop-color="#EFFFA9"></stop><stop offset="1" stop-color="#FDFFF2"></stop></linearGradient><linearGradient id="paint19_linear_1580_239" x1="872" y1="1056" x2="1126" y2="1521" gradientUnits="userSpaceOnUse"><stop stop-color="#7F9716"></stop><stop offset="1" stop-color="#CFFF00"></stop></linearGradient><linearGradient id="paint20_linear_1580_239" x1="649" y1="1056" x2="903" y2="1521" gradientUnits="userSpaceOnUse"><stop stop-color="#7F9716"></stop><stop offset="1" stop-color="#CFFF00"></stop></linearGradient><linearGradient id="paint21_linear_1580_239" x1="425" y1="1056" x2="679" y2="1521" gradientUnits="userSpaceOnUse"><stop stop-color="#7F9716"></stop><stop offset="1" stop-color="#CFFF00"></stop></linearGradient><linearGradient id="paint22_linear_1580_239" x1="989.11" y1="564" x2="989.11" y2="941" gradientUnits="userSpaceOnUse"><stop stop-color="#F0FFB2"></stop><stop offset="1" stop-color="#EFEFEF"></stop></linearGradient><linearGradient id="paint23_linear_1580_239" x1="1122" y1="978.501" x2="919" y2="968.001" gradientUnits="userSpaceOnUse"><stop stop-color="white" stop-opacity="0"></stop><stop offset="0.501" stop-color="#CFFF00"></stop><stop offset="1" stop-color="#EFEFEF" stop-opacity="0"></stop></linearGradient></defs></svg>